<?xml version="1.0" standalone="no"?>
<!DOCTYPE svg PUBLIC "-//W3C//DTD SVG 20010904//EN"
 "http://www.w3.org/TR/2001/REC-SVG-20010904/DTD/svg10.dtd">
<svg version="1.0" xmlns="http://www.w3.org/2000/svg"
 width="512.000000pt" height="512.000000pt" viewBox="0 0 512.000000 512.000000"
 preserveAspectRatio="xMidYMid meet">

<g transform="translate(0.000000,512.000000) scale(0.100000,-0.100000)"
fill="#000000" stroke="none">
<path d="M1815 4948 c-23 -20 -31 -50 -74 -252 -27 -126 -55 -232 -62 -236 -7
-5 -84 -34 -171 -65 -172 -63 -198 -81 -198 -142 0 -53 30 -73 210 -137 91
-33 167 -60 168 -62 2 -1 24 -98 48 -216 25 -117 50 -226 56 -242 23 -57 112
-65 140 -12 6 11 33 121 59 244 26 123 48 224 50 226 2 1 78 29 169 61 180 65
210 85 210 138 0 61 -26 79 -198 142 -87 31 -165 60 -172 65 -7 5 -34 105 -61
237 -43 201 -51 231 -74 251 -14 12 -37 22 -50 22 -13 0 -36 -10 -50 -22z
m100 -480 c9 -43 22 -84 30 -91 7 -8 73 -35 146 -62 74 -26 138 -51 142 -55 4
-4 -54 -29 -129 -56 -76 -27 -146 -56 -156 -64 -12 -10 -27 -61 -48 -160 -17
-80 -32 -149 -33 -154 -2 -5 -18 60 -35 145 -23 111 -38 158 -51 170 -11 9
-81 37 -156 64 -75 26 -133 51 -128 55 4 4 46 21 93 38 197 70 198 71 209 105
8 25 57 248 62 285 1 8 29 -106 54 -220z"/>
<path d="M3569 4943 c-40 -21 -61 -40 -84 -77 l-30 -49 -3 -1029 -2 -1028 -64
0 -63 0 -6 45 c-9 62 -49 143 -98 199 -52 59 -164 115 -245 123 l-59 6 -29 61
c-39 80 -123 164 -207 205 -184 90 -394 54 -541 -92 l-63 -63 -54 10 c-114 20
-245 -25 -336 -115 -44 -43 -56 -49 -92 -49 -102 0 -223 -62 -293 -151 -33
-43 -80 -141 -80 -169 0 -6 -39 -10 -91 -10 -118 0 -169 -14 -212 -57 -41 -40
-57 -94 -57 -185 0 -80 14 -129 47 -168 37 -44 74 -60 142 -60 l60 0 5 -52 c4
-29 38 -474 76 -988 38 -514 72 -948 75 -965 8 -45 46 -93 91 -115 40 -20 65
-20 1807 -20 1754 0 1767 0 1787 20 11 11 20 26 20 34 0 8 -24 61 -53 118 -79
154 -144 376 -163 556 -6 50 -4 62 8 62 30 0 97 62 122 112 60 121 12 263
-109 319 -37 17 -72 19 -462 19 l-423 0 -2 1708 c-3 1858 1 1735 -61 1801 -71
74 -165 90 -258 44z m163 -122 l33 -29 0 -1699 0 -1698 -95 0 -95 0 -3 1685
c-2 1250 1 1692 9 1713 25 60 100 74 151 28z m-1106 -1531 c74 -36 128 -93
161 -169 49 -114 39 -105 133 -111 100 -6 163 -32 211 -88 36 -41 68 -106 69
-139 l0 -23 -930 0 -930 0 15 36 c48 114 141 174 273 174 l65 0 66 69 c54 56
76 72 120 85 68 20 104 20 167 1 80 -24 88 -22 138 49 105 148 283 195 442
116z m-1158 -767 l3 -113 -230 0 c-226 0 -230 0 -245 22 -16 23 -22 120 -10
164 10 39 39 43 264 41 l215 -2 3 -112z m1070 -194 c3 -345 -1 -368 -58 -407
-47 -32 -101 -25 -144 17 l-31 31 -3 252 c-3 215 -5 255 -19 270 -20 23 -61
23 -85 1 -17 -15 -18 -43 -18 -470 0 -498 -1 -507 -59 -537 -51 -27 -96 -21
-139 18 l-37 34 -3 308 c-2 267 -5 311 -19 326 -21 24 -58 23 -83 -2 -19 -19
-20 -33 -20 -216 l0 -196 -34 -34 c-29 -29 -41 -34 -81 -34 -40 0 -52 5 -81
34 l-34 34 0 441 0 441 473 -2 472 -3 3 -306z m912 196 l0 -115 -395 0 -395 0
0 115 0 115 395 0 395 0 0 -115z m-1980 -520 c6 -312 5 -311 78 -377 22 -20
56 -41 77 -48 37 -12 144 -10 176 4 13 6 18 -1 24 -30 30 -164 198 -251 342
-179 103 52 133 121 133 307 0 120 1 130 18 123 111 -46 225 -16 292 76 39 54
50 115 50 274 l0 135 318 0 c175 0 321 -2 323 -4 3 -3 -10 -193 -28 -423 -17
-230 -32 -430 -32 -445 l-1 -28 -322 0 -323 0 -52 -30 c-60 -34 -96 -83 -114
-152 -23 -93 26 -201 116 -253 25 -15 45 -32 45 -38 0 -26 -32 -197 -51 -272
-30 -119 -55 -190 -101 -287 l-41 -88 -493 0 c-533 0 -524 -1 -524 53 0 12
-34 456 -74 987 -41 531 -72 969 -69 973 2 4 55 6 116 5 l112 -3 5 -280z
m1980 -165 l0 -450 -45 0 c-25 0 -45 3 -45 8 0 25 61 833 66 860 3 17 9 32 14
32 6 0 10 -171 10 -450z m1306 -604 c39 -39 45 -86 18 -137 -31 -61 14 -59
-1104 -59 -1108 0 -1069 -2 -1106 54 -34 53 -16 133 38 163 18 10 250 12 1072
13 l1048 0 34 -34z m-117 -408 c26 -183 67 -324 158 -545 4 -10 -46 -13 -231
-13 l-236 0 0 139 c0 125 -2 141 -21 165 -23 30 -45 33 -77 10 -21 -14 -22
-21 -22 -165 l0 -149 -140 0 -140 0 0 145 c0 132 -2 147 -20 165 -24 24 -48
25 -78 4 -21 -14 -22 -21 -22 -165 l0 -149 -140 0 -140 0 0 145 c0 132 -2 147
-20 165 -25 25 -55 25 -80 0 -18 -18 -20 -33 -20 -165 l0 -145 -140 0 -140 0
0 145 c0 132 -2 147 -20 165 -25 25 -55 25 -80 0 -18 -18 -20 -33 -20 -165 l0
-145 -239 0 -239 0 39 91 c51 116 91 262 120 428 l23 131 956 0 956 0 13 -92z"/>
<path d="M582 4445 c-36 -16 -36 -17 -83 -242 -18 -87 -37 -161 -43 -165 -6
-4 -51 -22 -101 -39 -186 -66 -205 -79 -205 -143 0 -43 32 -65 168 -114 73
-27 136 -53 141 -58 5 -5 25 -88 45 -184 20 -96 43 -185 52 -197 27 -42 91
-42 119 1 8 12 31 100 51 196 20 96 39 179 43 183 4 4 68 30 142 57 165 62
192 89 158 163 -13 29 -23 34 -184 93 l-120 44 -34 168 c-19 92 -40 181 -46
198 -17 41 -59 57 -103 39z m58 -390 c7 -38 18 -80 26 -91 8 -14 50 -35 118
-60 67 -24 101 -41 93 -46 -8 -4 -54 -22 -103 -39 -49 -18 -94 -36 -101 -41
-10 -8 -23 -55 -48 -176 -4 -18 -9 -32 -11 -30 -2 3 -12 46 -23 97 -10 51 -25
99 -32 106 -8 7 -60 30 -117 50 -57 21 -102 39 -100 40 2 1 49 19 106 40 67
24 108 45 116 59 7 11 21 61 31 110 20 98 24 96 45 -19z"/>
<path d="M421 2503 c-20 -17 -21 -29 -23 -192 l-3 -173 -52 -20 c-64 -23 -130
-86 -163 -153 l-25 -50 -3 -830 c-2 -790 -1 -832 16 -864 38 -70 44 -71 448
-71 359 0 361 0 395 23 73 49 70 -4 67 912 l-3 820 -24 53 c-29 64 -114 145
-173 164 l-43 15 -5 177 c-5 161 -7 179 -24 192 -15 11 -59 14 -192 14 -149 0
-175 -2 -193 -17z m289 -233 l0 -130 -95 0 -95 0 0 130 0 130 95 0 95 0 0
-130z m127 -261 c80 -30 122 -108 123 -226 l0 -83 -346 0 -346 0 4 98 c3 87 6
103 30 139 49 74 83 83 310 83 115 0 208 -4 225 -11z m121 -861 l2 -428 -345
0 -345 0 0 430 0 430 343 -2 342 -3 3 -427z m-3 -713 l0 -160 -342 -3 -343 -2
0 165 0 165 343 -2 342 -3 0 -160z"/>
</g>
</svg>
